<?xml version="1.0" encoding="UTF-8" standalone="no"?>
<!DOCTYPE svg PUBLIC "-//W3C//DTD SVG 1.1//EN"
 "http://www.w3.org/Graphics/SVG/1.1/DTD/svg11.dtd">
<!-- Generated by graphviz version 2.43.0 (0)
 -->
<!-- Title: dependency&#45;cruiser output Pages: 1 -->
<svg width="285pt" height="286pt"
 viewBox="0.00 0.00 285.00 286.00" xmlns="http://www.w3.org/2000/svg" xmlns:xlink="http://www.w3.org/1999/xlink">
<g id="graph0" class="graph" transform="scale(1 1) rotate(0) translate(4 282)">
<title>dependency&#45;cruiser output</title>
<polygon fill="white" stroke="transparent" points="-4,4 -4,-282 281,-282 281,4 -4,4"/>
<g id="clust1" class="cluster">
<title>cluster_client</title>
<path fill="#ffffff" stroke="black" stroke-width="2" d="M20,-8C20,-8 257,-8 257,-8 263,-8 269,-14 269,-20 269,-20 269,-258 269,-258 269,-264 263,-270 257,-270 257,-270 20,-270 20,-270 14,-270 8,-264 8,-258 8,-258 8,-20 8,-20 8,-14 14,-8 20,-8"/>
<text text-anchor="middle" x="138.5" y="-258.8" font-family="Helvetica,sans-Serif" font-weight="bold" font-size="9.00">client</text>
</g>
<g id="clust2" class="cluster">
<title>cluster_client/bin</title>
<path fill="#ffffff" stroke="black" stroke-width="2" d="M28,-162C28,-162 100,-162 100,-162 106,-162 112,-168 112,-174 112,-174 112,-232 112,-232 112,-238 106,-244 100,-244 100,-244 28,-244 28,-244 22,-244 16,-238 16,-232 16,-232 16,-174 16,-174 16,-168 22,-162 28,-162"/>
<text text-anchor="middle" x="64" y="-232.8" font-family="Helvetica,sans-Serif" font-weight="bold" font-size="9.00">bin</text>
</g>
<g id="clust3" class="cluster">
<title>cluster_client/config</title>
<path fill="#ffffff" stroke="black" stroke-width="2" d="M39,-102C39,-102 89,-102 89,-102 95,-102 101,-108 101,-114 101,-114 101,-142 101,-142 101,-148 95,-154 89,-154 89,-154 39,-154 39,-154 33,-154 27,-148 27,-142 27,-142 27,-114 27,-114 27,-108 33,-102 39,-102"/>
<text text-anchor="middle" x="64" y="-142.8" font-family="Helvetica,sans-Serif" font-weight="bold" font-size="9.00">config</text>
</g>
<g id="clust4" class="cluster">
<title>cluster_client/lib</title>
<path fill="#ffffff" stroke="black" stroke-width="2" d="M132,-102C132,-102 249,-102 249,-102 255,-102 261,-108 261,-114 261,-114 261,-232 261,-232 261,-238 255,-244 249,-244 249,-244 132,-244 132,-244 126,-244 120,-238 120,-232 120,-232 120,-114 120,-114 120,-108 126,-102 132,-102"/>
<text text-anchor="middle" x="190.5" y="-232.8" font-family="Helvetica,sans-Serif" font-weight="bold" font-size="9.00">lib</text>
</g>
<g id="clust5" class="cluster">
<title>cluster_client/lib/schemas</title>
<path fill="#ffffff" stroke="black" stroke-width="2" d="M140,-166C140,-166 241,-166 241,-166 247,-166 253,-172 253,-178 253,-178 253,-206 253,-206 253,-212 247,-218 241,-218 241,-218 140,-218 140,-218 134,-218 128,-212 128,-206 128,-206 128,-178 128,-178 128,-172 134,-166 140,-166"/>
<text text-anchor="middle" x="190.5" y="-206.8" font-family="Helvetica,sans-Serif" font-weight="bold" font-size="9.00">schemas</text>
</g>
<g id="clust6" class="cluster">
<title>cluster_client/test</title>
<path fill="#ffffff" stroke="black" stroke-width="2" d="M29,-42C29,-42 99,-42 99,-42 105,-42 111,-48 111,-54 111,-54 111,-82 111,-82 111,-88 105,-94 99,-94 99,-94 29,-94 29,-94 23,-94 17,-88 17,-82 17,-82 17,-54 17,-54 17,-48 23,-42 29,-42"/>
<text text-anchor="middle" x="64" y="-82.8" font-family="Helvetica,sans-Serif" font-weight="bold" font-size="9.00">test</text>
</g>
<!-- client/bin/multi&#45;client.js -->
<g id="node1" class="node">
<title>client/bin/multi&#45;client.js</title>
<g id="a_node1"><a xlink:href="client/bin/multi-client.js" xlink:title="multi&#45;client.js">
<path fill="#ffffcc" stroke="black" d="M96.5,-218C96.5,-218 31.5,-218 31.5,-218 28.5,-218 25.5,-215 25.5,-212 25.5,-212 25.5,-206 25.5,-206 25.5,-203 28.5,-200 31.5,-200 31.5,-200 96.5,-200 96.5,-200 99.5,-200 102.5,-203 102.5,-206 102.5,-206 102.5,-212 102.5,-212 102.5,-215 99.5,-218 96.5,-218"/>
<text text-anchor="start" x="33.5" y="-206.8" font-family="Helvetica,sans-Serif" font-size="9.00">multi&#45;client.js</text>
</a>
</g>
</g>
<!-- client/lib/balena.ts -->
<g id="node2" class="node">
<title>client/lib/balena.ts</title>
<g id="a_node2"><a xlink:href="client/lib/balena.ts" xlink:title="balena.ts">
<path fill="#ddfeff" stroke="black" d="M213.5,-128C213.5,-128 167.5,-128 167.5,-128 164.5,-128 161.5,-125 161.5,-122 161.5,-122 161.5,-116 161.5,-116 161.5,-113 164.5,-110 167.5,-110 167.5,-110 213.5,-110 213.5,-110 216.5,-110 219.5,-113 219.5,-116 219.5,-116 219.5,-122 219.5,-122 219.5,-125 216.5,-128 213.5,-128"/>
<text text-anchor="start" x="169.5" y="-116.8" font-family="Helvetica,sans-Serif" font-size="9.00">balena.ts</text>
</a>
</g>
</g>
<!-- client/bin/multi&#45;client.js&#45;&gt;client/lib/balena.ts -->
<g id="edge1" class="edge">
<title>client/bin/multi&#45;client.js&#45;&gt;client/lib/balena.ts</title>
<path fill="none" stroke="#000000" stroke-width="2" stroke-opacity="0.200000" d="M102.89,-201.38C106.33,-199.44 109.47,-197.02 112,-194 129.27,-173.38 101.75,-153.77 120,-134 128.92,-124.33 142.46,-120.12 155.22,-118.49"/>
<polygon fill="#000000" fill-opacity="0.200000" stroke="#000000" stroke-width="2" stroke-opacity="0.200000" points="155.64,-120.56 161.4,-117.88 155.23,-116.38 155.64,-120.56"/>
</g>
<!-- client/lib/schemas/multi&#45;client&#45;config.js -->
<g id="node3" class="node">
<title>client/lib/schemas/multi&#45;client&#45;config.js</title>
<g id="a_node3"><a xlink:href="client/lib/schemas/multi-client-config.js" xlink:title="multi&#45;client&#45;config.js">
<path fill="#ffffcc" stroke="black" d="M239,-192C239,-192 142,-192 142,-192 139,-192 136,-189 136,-186 136,-186 136,-180 136,-180 136,-177 139,-174 142,-174 142,-174 239,-174 239,-174 242,-174 245,-177 245,-180 245,-180 245,-186 245,-186 245,-189 242,-192 239,-192"/>
<text text-anchor="start" x="144" y="-180.8" font-family="Helvetica,sans-Serif" font-size="9.00">multi&#45;client&#45;config.js</text>
</a>
</g>
</g>
<!-- client/bin/multi&#45;client.js&#45;&gt;client/lib/schemas/multi&#45;client&#45;config.js -->
<g id="edge2" class="edge">
<title>client/bin/multi&#45;client.js&#45;&gt;client/lib/schemas/multi&#45;client&#45;config.js</title>
<path fill="none" stroke="#000000" stroke-width="2" stroke-opacity="0.200000" d="M102.69,-201.13C114.5,-198.66 127.71,-195.9 140.2,-193.3"/>
<polygon fill="#000000" fill-opacity="0.200000" stroke="#000000" stroke-width="2" stroke-opacity="0.200000" points="140.82,-195.31 146.26,-192.03 139.96,-191.2 140.82,-195.31"/>
</g>
<!-- client/bin/single&#45;client.js -->
<g id="node4" class="node">
<title>client/bin/single&#45;client.js</title>
<g id="a_node4"><a xlink:href="client/bin/single-client.js" xlink:title="single&#45;client.js">
<path fill="#ffffcc" stroke="black" d="M98,-188C98,-188 30,-188 30,-188 27,-188 24,-185 24,-182 24,-182 24,-176 24,-176 24,-173 27,-170 30,-170 30,-170 98,-170 98,-170 101,-170 104,-173 104,-176 104,-176 104,-182 104,-182 104,-185 101,-188 98,-188"/>
<text text-anchor="start" x="32" y="-176.8" font-family="Helvetica,sans-Serif" font-size="9.00">single&#45;client.js</text>
</a>
</g>
</g>
<!-- client/lib/index.js -->
<g id="node5" class="node">
<title>client/lib/index.js</title>
<g id="a_node5"><a xlink:href="client/lib/index.js" xlink:title="index.js">
<path fill="#ffffcc" stroke="black" d="M211.5,-158C211.5,-158 169.5,-158 169.5,-158 166.5,-158 163.5,-155 163.5,-152 163.5,-152 163.5,-146 163.5,-146 163.5,-143 166.5,-140 169.5,-140 169.5,-140 211.5,-140 211.5,-140 214.5,-140 217.5,-143 217.5,-146 217.5,-146 217.5,-152 217.5,-152 217.5,-155 214.5,-158 211.5,-158"/>
<text text-anchor="start" x="173" y="-146.8" font-family="Helvetica,sans-Serif" font-size="9.00">index.js</text>
</a>
</g>
</g>
<!-- client/bin/single&#45;client.js&#45;&gt;client/lib/index.js -->
<g id="edge3" class="edge">
<title>client/bin/single&#45;client.js&#45;&gt;client/lib/index.js</title>
<path fill="none" stroke="#000000" stroke-width="2" stroke-opacity="0.200000" d="M94.28,-169.99C102.55,-167.57 111.6,-165.06 120,-163 132.11,-160.02 145.53,-157.21 157.31,-154.9"/>
<polygon fill="#000000" fill-opacity="0.200000" stroke="#000000" stroke-width="2" stroke-opacity="0.200000" points="157.82,-156.94 163.31,-153.73 157.02,-152.81 157.82,-156.94"/>
</g>
<!-- client/config/default.js -->
<g id="node6" class="node">
<title>client/config/default.js</title>
<g id="a_node6"><a xlink:href="client/config/default.js" xlink:title="default.js">
<path fill="#ccffcc" stroke="black" d="M87,-128C87,-128 41,-128 41,-128 38,-128 35,-125 35,-122 35,-122 35,-116 35,-116 35,-113 38,-110 41,-110 41,-110 87,-110 87,-110 90,-110 93,-113 93,-116 93,-116 93,-122 93,-122 93,-125 90,-128 87,-128"/>
<text text-anchor="start" x="43" y="-116.8" font-family="Helvetica,sans-Serif" font-size="9.00">default.js</text>
</a>
</g>
</g>
<!-- client/jest.config.js -->
<g id="node7" class="node">
<title>client/jest.config.js</title>
<g id="a_node7"><a xlink:href="client/jest.config.js" xlink:title="jest.config.js">
<path fill="#ccffcc" stroke="black" d="M95,-34C95,-34 33,-34 33,-34 30,-34 27,-31 27,-28 27,-28 27,-22 27,-22 27,-19 30,-16 33,-16 33,-16 95,-16 95,-16 98,-16 101,-19 101,-22 101,-22 101,-28 101,-28 101,-31 98,-34 95,-34"/>
<text text-anchor="start" x="35" y="-22.8" font-family="Helvetica,sans-Serif" font-size="9.00">jest.config.js</text>
</a>
</g>
</g>
<!-- client/test/balena.test.ts -->
<g id="node8" class="node">
<title>client/test/balena.test.ts</title>
<g id="a_node8"><a xlink:href="client/test/balena.test.ts" xlink:title="balena.test.ts">
<path fill="#ddfeff" stroke="black" d="M97,-68C97,-68 31,-68 31,-68 28,-68 25,-65 25,-62 25,-62 25,-56 25,-56 25,-53 28,-50 31,-50 31,-50 97,-50 97,-50 100,-50 103,-53 103,-56 103,-56 103,-62 103,-62 103,-65 100,-68 97,-68"/>
<text text-anchor="start" x="33" y="-56.8" font-family="Helvetica,sans-Serif" font-size="9.00">balena.test.ts</text>
</a>
</g>
</g>
<!-- client/test/balena.test.ts&#45;&gt;client/lib/balena.ts -->
<g id="edge4" class="edge">
<title>client/test/balena.test.ts&#45;&gt;client/lib/balena.ts</title>
<path fill="none" stroke="#000000" stroke-width="2" stroke-opacity="0.200000" d="M83.91,-68.11C105.7,-78.61 141.55,-95.89 165.35,-107.36"/>
<polygon fill="#000000" fill-opacity="0.200000" stroke="#000000" stroke-width="2" stroke-opacity="0.200000" points="164.5,-109.28 170.82,-110 166.33,-105.5 164.5,-109.28"/>
</g>
</g>
</svg>
