<?xml version="1.0" encoding="UTF-8" standalone="no"?>
<!DOCTYPE svg PUBLIC "-//W3C//DTD SVG 1.1//EN"
 "http://www.w3.org/Graphics/SVG/1.1/DTD/svg11.dtd">
<!-- Generated by graphviz version 2.43.0 (0)
 -->
<!-- Title: dependency&#45;cruiser output Pages: 1 -->
<svg width="347pt" height="702pt"
 viewBox="0.00 0.00 347.00 702.00" xmlns="http://www.w3.org/2000/svg" xmlns:xlink="http://www.w3.org/1999/xlink">
<g id="graph0" class="graph" transform="scale(1 1) rotate(0) translate(4 698)">
<title>dependency&#45;cruiser output</title>
<polygon fill="white" stroke="transparent" points="-4,4 -4,-698 343,-698 343,4 -4,4"/>
<g id="clust1" class="cluster">
<title>cluster_core</title>
<path fill="#ffffff" stroke="black" stroke-width="2" d="M20,-8C20,-8 319,-8 319,-8 325,-8 331,-14 331,-20 331,-20 331,-674 331,-674 331,-680 325,-686 319,-686 319,-686 20,-686 20,-686 14,-686 8,-680 8,-674 8,-674 8,-20 8,-20 8,-14 14,-8 20,-8"/>
<text text-anchor="middle" x="169.5" y="-674.8" font-family="Helvetica,sans-Serif" font-weight="bold" font-size="9.00">core</text>
</g>
<g id="clust2" class="cluster">
<title>cluster_core/config</title>
<path fill="#ffffff" stroke="black" stroke-width="2" d="M56.5,-608C56.5,-608 106.5,-608 106.5,-608 112.5,-608 118.5,-614 118.5,-620 118.5,-620 118.5,-648 118.5,-648 118.5,-654 112.5,-660 106.5,-660 106.5,-660 56.5,-660 56.5,-660 50.5,-660 44.5,-654 44.5,-648 44.5,-648 44.5,-620 44.5,-620 44.5,-614 50.5,-608 56.5,-608"/>
<text text-anchor="middle" x="81.5" y="-648.8" font-family="Helvetica,sans-Serif" font-weight="bold" font-size="9.00">config</text>
</g>
<g id="clust3" class="cluster">
<title>cluster_core/contracts</title>
<path fill="#ffffff" stroke="black" stroke-width="2" d="M28,-514C28,-514 219,-514 219,-514 225,-514 231,-520 231,-526 231,-526 231,-588 231,-588 231,-594 225,-600 219,-600 219,-600 28,-600 28,-600 22,-600 16,-594 16,-588 16,-588 16,-526 16,-526 16,-520 22,-514 28,-514"/>
<text text-anchor="middle" x="123.5" y="-588.8" font-family="Helvetica,sans-Serif" font-weight="bold" font-size="9.00">contracts</text>
</g>
<g id="clust4" class="cluster">
<title>cluster_core/contracts/scripts</title>
<path fill="#ffffff" stroke="black" stroke-width="2" d="M36,-522C36,-522 211,-522 211,-522 217,-522 223,-528 223,-534 223,-534 223,-562 223,-562 223,-568 217,-574 211,-574 211,-574 36,-574 36,-574 30,-574 24,-568 24,-562 24,-562 24,-534 24,-534 24,-528 30,-522 36,-522"/>
<text text-anchor="middle" x="123.5" y="-562.8" font-family="Helvetica,sans-Serif" font-weight="bold" font-size="9.00">scripts</text>
</g>
<g id="clust5" class="cluster">
<title>cluster_core/lib</title>
<path fill="#ffffff" stroke="black" stroke-width="2" d="M45,-16C45,-16 311,-16 311,-16 317,-16 323,-22 323,-28 323,-28 323,-494 323,-494 323,-500 317,-506 311,-506 311,-506 45,-506 45,-506 39,-506 33,-500 33,-494 33,-494 33,-28 33,-28 33,-22 39,-16 45,-16"/>
<text text-anchor="middle" x="178" y="-494.8" font-family="Helvetica,sans-Serif" font-weight="bold" font-size="9.00">lib</text>
</g>
<g id="clust6" class="cluster">
<title>cluster_core/lib/common</title>
<path fill="#ffffff" stroke="black" stroke-width="2" d="M53,-80C53,-80 303,-80 303,-80 309,-80 315,-86 315,-92 315,-92 315,-224 315,-224 315,-230 309,-236 303,-236 303,-236 53,-236 53,-236 47,-236 41,-230 41,-224 41,-224 41,-92 41,-92 41,-86 47,-80 53,-80"/>
<text text-anchor="middle" x="178" y="-224.8" font-family="Helvetica,sans-Serif" font-weight="bold" font-size="9.00">common</text>
</g>
<g id="clust7" class="cluster">
<title>cluster_core/lib/components</title>
<path fill="#ffffff" stroke="black" stroke-width="2" d="M151,-304C151,-304 225,-304 225,-304 231,-304 237,-310 237,-316 237,-316 237,-468 237,-468 237,-474 231,-480 225,-480 225,-480 151,-480 151,-480 145,-480 139,-474 139,-468 139,-468 139,-316 139,-316 139,-310 145,-304 151,-304"/>
<text text-anchor="middle" x="188" y="-468.8" font-family="Helvetica,sans-Serif" font-weight="bold" font-size="9.00">components</text>
</g>
<g id="clust8" class="cluster">
<title>cluster_core/lib/components/balena</title>
<path fill="#ffffff" stroke="black" stroke-width="2" d="M165,-372C165,-372 211,-372 211,-372 217,-372 223,-378 223,-384 223,-384 223,-442 223,-442 223,-448 217,-454 211,-454 211,-454 165,-454 165,-454 159,-454 153,-448 153,-442 153,-442 153,-384 153,-384 153,-378 159,-372 165,-372"/>
<text text-anchor="middle" x="188" y="-442.8" font-family="Helvetica,sans-Serif" font-weight="bold" font-size="9.00">balena</text>
</g>
<g id="clust9" class="cluster">
<title>cluster_core/lib/components/os</title>
<path fill="#ffffff" stroke="black" stroke-width="2" d="M159,-312C159,-312 217,-312 217,-312 223,-312 229,-318 229,-324 229,-324 229,-352 229,-352 229,-358 223,-364 217,-364 217,-364 159,-364 159,-364 153,-364 147,-358 147,-352 147,-352 147,-324 147,-324 147,-318 153,-312 159,-312"/>
<text text-anchor="middle" x="188" y="-352.8" font-family="Helvetica,sans-Serif" font-weight="bold" font-size="9.00">os</text>
</g>
<g id="clust10" class="cluster">
<title>cluster_core/lib/scripts</title>
<path fill="#ffffff" stroke="black" stroke-width="2" d="M58.5,-244C58.5,-244 212,-244 212,-244 218,-244 224,-250 224,-256 224,-256 224,-284 224,-284 224,-290 218,-296 212,-296 212,-296 58.5,-296 58.5,-296 52.5,-296 46.5,-290 46.5,-284 46.5,-284 46.5,-256 46.5,-256 46.5,-250 52.5,-244 58.5,-244"/>
<text text-anchor="middle" x="135.25" y="-284.8" font-family="Helvetica,sans-Serif" font-weight="bold" font-size="9.00">scripts</text>
</g>
<!-- core/config/default.js -->
<g id="node1" class="node">
<title>core/config/default.js</title>
<g id="a_node1"><a xlink:href="core/config/default.js" xlink:title="default.js">
<path fill="#ccffcc" stroke="black" d="M104.5,-634C104.5,-634 58.5,-634 58.5,-634 55.5,-634 52.5,-631 52.5,-628 52.5,-628 52.5,-622 52.5,-622 52.5,-619 55.5,-616 58.5,-616 58.5,-616 104.5,-616 104.5,-616 107.5,-616 110.5,-619 110.5,-622 110.5,-622 110.5,-628 110.5,-628 110.5,-631 107.5,-634 104.5,-634"/>
<text text-anchor="start" x="60.5" y="-622.8" font-family="Helvetica,sans-Serif" font-size="9.00">default.js</text>
</a>
</g>
</g>
<!-- core/contracts/scripts/check&#45;contracts.js -->
<g id="node2" class="node">
<title>core/contracts/scripts/check&#45;contracts.js</title>
<g id="a_node2"><a xlink:href="core/contracts/scripts/check-contracts.js" xlink:title="check&#45;contracts.js">
<path fill="#ffffcc" stroke="black" d="M125,-548C125,-548 38,-548 38,-548 35,-548 32,-545 32,-542 32,-542 32,-536 32,-536 32,-533 35,-530 38,-530 38,-530 125,-530 125,-530 128,-530 131,-533 131,-536 131,-536 131,-542 131,-542 131,-545 128,-548 125,-548"/>
<text text-anchor="start" x="40" y="-536.8" font-family="Helvetica,sans-Serif" font-size="9.00">check&#45;contracts.js</text>
</a>
</g>
</g>
<!-- core/contracts/scripts/utils.js -->
<g id="node3" class="node">
<title>core/contracts/scripts/utils.js</title>
<g id="a_node3"><a xlink:href="core/contracts/scripts/utils.js" xlink:title="utils.js">
<path fill="#ffffcc" stroke="black" d="M209,-548C209,-548 167,-548 167,-548 164,-548 161,-545 161,-542 161,-542 161,-536 161,-536 161,-533 164,-530 167,-530 167,-530 209,-530 209,-530 212,-530 215,-533 215,-536 215,-536 215,-542 215,-542 215,-545 212,-548 209,-548"/>
<text text-anchor="start" x="173.5" y="-536.8" font-family="Helvetica,sans-Serif" font-size="9.00">utils.js</text>
</a>
</g>
</g>
<!-- core/contracts/scripts/check&#45;contracts.js&#45;&gt;core/contracts/scripts/utils.js -->
<g id="edge1" class="edge">
<title>core/contracts/scripts/check&#45;contracts.js&#45;&gt;core/contracts/scripts/utils.js</title>
<path fill="none" stroke="#000000" stroke-width="2" stroke-opacity="0.200000" d="M131.08,-539C139.07,-539 147.18,-539 154.66,-539"/>
<polygon fill="#000000" fill-opacity="0.200000" stroke="#000000" stroke-width="2" stroke-opacity="0.200000" points="154.77,-541.1 160.77,-539 154.77,-536.9 154.77,-541.1"/>
</g>
<!-- core/lib/common/archiver.js -->
<g id="node4" class="node">
<title>core/lib/common/archiver.js</title>
<g id="a_node4"><a xlink:href="core/lib/common/archiver.js" xlink:title="archiver.js">
<path fill="#ffffcc" stroke="black" d="M301,-158C301,-158 251,-158 251,-158 248,-158 245,-155 245,-152 245,-152 245,-146 245,-146 245,-143 248,-140 251,-140 251,-140 301,-140 301,-140 304,-140 307,-143 307,-146 307,-146 307,-152 307,-152 307,-155 304,-158 301,-158"/>
<text text-anchor="start" x="253" y="-146.8" font-family="Helvetica,sans-Serif" font-size="9.00">archiver.js</text>
</a>
</g>
</g>
<!-- core/lib/common/context.js -->
<g id="node5" class="node">
<title>core/lib/common/context.js</title>
<g id="a_node5"><a xlink:href="core/lib/common/context.js" xlink:title="context.js">
<path fill="#ffffcc" stroke="black" d="M300.5,-203C300.5,-203 251.5,-203 251.5,-203 248.5,-203 245.5,-200 245.5,-197 245.5,-197 245.5,-191 245.5,-191 245.5,-188 248.5,-185 251.5,-185 251.5,-185 300.5,-185 300.5,-185 303.5,-185 306.5,-188 306.5,-191 306.5,-191 306.5,-197 306.5,-197 306.5,-200 303.5,-203 300.5,-203"/>
<text text-anchor="start" x="253.5" y="-191.8" font-family="Helvetica,sans-Serif" font-size="9.00">context.js</text>
</a>
</g>
</g>
<!-- core/lib/common/graphics.js -->
<g id="node6" class="node">
<title>core/lib/common/graphics.js</title>
<g id="a_node6"><a xlink:href="core/lib/common/graphics.js" xlink:title="graphics.js">
<path fill="#ccffcc" stroke="black" d="M108,-206C108,-206 55,-206 55,-206 52,-206 49,-203 49,-200 49,-200 49,-194 49,-194 49,-191 52,-188 55,-188 55,-188 108,-188 108,-188 111,-188 114,-191 114,-194 114,-194 114,-200 114,-200 114,-203 111,-206 108,-206"/>
<text text-anchor="start" x="57" y="-194.8" font-family="Helvetica,sans-Serif" font-size="9.00">graphics.js</text>
</a>
</g>
</g>
<!-- core/lib/common/state.js -->
<g id="node7" class="node">
<title>core/lib/common/state.js</title>
<g id="a_node7"><a xlink:href="core/lib/common/state.js" xlink:title="state.js">
<path fill="#ffffcc" stroke="black" d="M209,-136C209,-136 167,-136 167,-136 164,-136 161,-133 161,-130 161,-130 161,-124 161,-124 161,-121 164,-118 167,-118 167,-118 209,-118 209,-118 212,-118 215,-121 215,-124 215,-124 215,-130 215,-130 215,-133 212,-136 209,-136"/>
<text text-anchor="start" x="171.5" y="-124.8" font-family="Helvetica,sans-Serif" font-size="9.00">state.js</text>
</a>
</g>
</g>
<!-- core/lib/common/suite.js -->
<g id="node8" class="node">
<title>core/lib/common/suite.js</title>
<g id="a_node8"><a xlink:href="core/lib/common/suite.js" xlink:title="suite.js">
<path fill="#ffffcc" stroke="black" d="M102.5,-169C102.5,-169 60.5,-169 60.5,-169 57.5,-169 54.5,-166 54.5,-163 54.5,-163 54.5,-157 54.5,-157 54.5,-154 57.5,-151 60.5,-151 60.5,-151 102.5,-151 102.5,-151 105.5,-151 108.5,-154 108.5,-157 108.5,-157 108.5,-163 108.5,-163 108.5,-166 105.5,-169 102.5,-169"/>
<text text-anchor="start" x="65.5" y="-157.8" font-family="Helvetica,sans-Serif" font-size="9.00">suite.js</text>
</a>
</g>
</g>
<!-- core/lib/common/suite.js&#45;&gt;core/lib/common/context.js -->
<g id="edge2" class="edge">
<title>core/lib/common/suite.js&#45;&gt;core/lib/common/context.js</title>
<path fill="none" stroke="#000000" stroke-width="2" stroke-opacity="0.200000" d="M108.72,-167.62C116.69,-170.98 124.93,-175.65 131,-182 137.61,-188.92 131.07,-196.63 139,-202 170.82,-223.54 217.02,-214.52 246.53,-205.05"/>
<polygon fill="#000000" fill-opacity="0.200000" stroke="#000000" stroke-width="2" stroke-opacity="0.200000" points="247.54,-206.93 252.57,-203.04 246.21,-202.95 247.54,-206.93"/>
</g>
<!-- core/lib/common/suite.js&#45;&gt;core/lib/common/state.js -->
<g id="edge3" class="edge">
<title>core/lib/common/suite.js&#45;&gt;core/lib/common/state.js</title>
<path fill="none" stroke="#000000" stroke-width="2" stroke-opacity="0.200000" d="M108.65,-151.64C118.2,-148.59 129.08,-145.13 139,-142 144.2,-140.36 149.71,-138.63 155.09,-136.95"/>
<polygon fill="#000000" fill-opacity="0.200000" stroke="#000000" stroke-width="2" stroke-opacity="0.200000" points="155.73,-138.94 160.83,-135.15 154.48,-134.93 155.73,-138.94"/>
</g>
<!-- core/lib/common/taskQueue.js -->
<g id="node9" class="node">
<title>core/lib/common/taskQueue.js</title>
<g id="a_node9"><a xlink:href="core/lib/common/taskQueue.js" xlink:title="taskQueue.js">
<path fill="#ffffcc" stroke="black" d="M219,-166C219,-166 157,-166 157,-166 154,-166 151,-163 151,-160 151,-160 151,-154 151,-154 151,-151 154,-148 157,-148 157,-148 219,-148 219,-148 222,-148 225,-151 225,-154 225,-154 225,-160 225,-160 225,-163 222,-166 219,-166"/>
<text text-anchor="start" x="159" y="-154.8" font-family="Helvetica,sans-Serif" font-size="9.00">taskQueue.js</text>
</a>
</g>
</g>
<!-- core/lib/common/suite.js&#45;&gt;core/lib/common/taskQueue.js -->
<g id="edge4" class="edge">
<title>core/lib/common/suite.js&#45;&gt;core/lib/common/taskQueue.js</title>
<path fill="none" stroke="#000000" stroke-width="2" stroke-opacity="0.200000" d="M108.6,-159.25C119.51,-158.94 132.48,-158.57 144.69,-158.21"/>
<polygon fill="#000000" fill-opacity="0.200000" stroke="#000000" stroke-width="2" stroke-opacity="0.200000" points="145.06,-160.31 150.99,-158.03 144.94,-156.11 145.06,-160.31"/>
</g>
<!-- core/lib/common/test.js -->
<g id="node10" class="node">
<title>core/lib/common/test.js</title>
<g id="a_node10"><a xlink:href="core/lib/common/test.js" xlink:title="test.js">
<path fill="#ffffcc" stroke="black" d="M209,-196C209,-196 167,-196 167,-196 164,-196 161,-193 161,-190 161,-190 161,-184 161,-184 161,-181 164,-178 167,-178 167,-178 209,-178 209,-178 212,-178 215,-181 215,-184 215,-184 215,-190 215,-190 215,-193 212,-196 209,-196"/>
<text text-anchor="start" x="174" y="-184.8" font-family="Helvetica,sans-Serif" font-size="9.00">test.js</text>
</a>
</g>
</g>
<!-- core/lib/common/suite.js&#45;&gt;core/lib/common/test.js -->
<g id="edge5" class="edge">
<title>core/lib/common/suite.js&#45;&gt;core/lib/common/test.js</title>
<path fill="none" stroke="#000000" stroke-width="2" stroke-opacity="0.200000" d="M108.6,-166.74C122.56,-170.35 139.89,-174.83 154.7,-178.65"/>
<polygon fill="#000000" fill-opacity="0.200000" stroke="#000000" stroke-width="2" stroke-opacity="0.200000" points="154.54,-180.78 160.87,-180.25 155.59,-176.71 154.54,-180.78"/>
</g>
<!-- core/lib/common/test.js&#45;&gt;core/lib/common/archiver.js -->
<g id="edge6" class="edge">
<title>core/lib/common/test.js&#45;&gt;core/lib/common/archiver.js</title>
<path fill="none" stroke="#000000" stroke-width="2" stroke-opacity="0.200000" d="M215.08,-180.1C222.31,-177.85 230.08,-175.12 237,-172 243.57,-169.04 250.4,-165.18 256.43,-161.47"/>
<polygon fill="#000000" fill-opacity="0.200000" stroke="#000000" stroke-width="2" stroke-opacity="0.200000" points="257.76,-163.11 261.71,-158.13 255.52,-159.56 257.76,-163.11"/>
</g>
<!-- core/lib/common/test.js&#45;&gt;core/lib/common/context.js -->
<g id="edge7" class="edge">
<title>core/lib/common/test.js&#45;&gt;core/lib/common/context.js</title>
<path fill="none" stroke="#000000" stroke-width="2" stroke-opacity="0.200000" d="M215.27,-189.14C222.83,-189.75 231.2,-190.44 239.23,-191.09"/>
<polygon fill="#000000" fill-opacity="0.200000" stroke="#000000" stroke-width="2" stroke-opacity="0.200000" points="239.13,-193.19 245.28,-191.58 239.47,-189 239.13,-193.19"/>
</g>
<!-- core/lib/common/utils.js -->
<g id="node11" class="node">
<title>core/lib/common/utils.js</title>
<g id="a_node11"><a xlink:href="core/lib/common/utils.js" xlink:title="utils.js">
<path fill="#ffffcc" stroke="black" d="M297,-106C297,-106 255,-106 255,-106 252,-106 249,-103 249,-100 249,-100 249,-94 249,-94 249,-91 252,-88 255,-88 255,-88 297,-88 297,-88 300,-88 303,-91 303,-94 303,-94 303,-100 303,-100 303,-103 300,-106 297,-106"/>
<text text-anchor="start" x="261.5" y="-94.8" font-family="Helvetica,sans-Serif" font-size="9.00">utils.js</text>
</a>
</g>
</g>
<!-- core/lib/common/worker.js -->
<g id="node12" class="node">
<title>core/lib/common/worker.js</title>
<g id="a_node12"><a xlink:href="core/lib/common/worker.js" xlink:title="worker.js">
<path fill="#ffffcc" stroke="black" d="M210,-106C210,-106 166,-106 166,-106 163,-106 160,-103 160,-100 160,-100 160,-94 160,-94 160,-91 163,-88 166,-88 166,-88 210,-88 210,-88 213,-88 216,-91 216,-94 216,-94 216,-100 216,-100 216,-103 213,-106 210,-106"/>
<text text-anchor="start" x="168" y="-94.8" font-family="Helvetica,sans-Serif" font-size="9.00">worker.js</text>
</a>
</g>
</g>
<!-- core/lib/common/worker.js&#45;&gt;core/lib/common/archiver.js -->
<g id="edge8" class="edge">
<title>core/lib/common/worker.js&#45;&gt;core/lib/common/archiver.js</title>
<path fill="none" stroke="#000000" stroke-width="2" stroke-opacity="0.200000" d="M216.11,-103.05C223.19,-105.27 230.63,-108.2 237,-112 247.22,-118.09 256.8,-127.46 263.79,-135.24"/>
<polygon fill="#000000" fill-opacity="0.200000" stroke="#000000" stroke-width="2" stroke-opacity="0.200000" points="262.26,-136.69 267.78,-139.84 265.43,-133.93 262.26,-136.69"/>
</g>
<!-- core/lib/common/worker.js&#45;&gt;core/lib/common/utils.js -->
<g id="edge9" class="edge">
<title>core/lib/common/worker.js&#45;&gt;core/lib/common/utils.js</title>
<path fill="none" stroke="#000000" stroke-width="2" stroke-opacity="0.200000" d="M216.21,-97C224.61,-97 233.93,-97 242.64,-97"/>
<polygon fill="#000000" fill-opacity="0.200000" stroke="#000000" stroke-width="2" stroke-opacity="0.200000" points="242.85,-99.1 248.85,-97 242.85,-94.9 242.85,-99.1"/>
</g>
<!-- core/lib/components/balena/cli.js -->
<g id="node13" class="node">
<title>core/lib/components/balena/cli.js</title>
<g id="a_node13"><a xlink:href="core/lib/components/balena/cli.js" xlink:title="cli.js">
<path fill="#ccffcc" stroke="black" d="M209,-428C209,-428 167,-428 167,-428 164,-428 161,-425 161,-422 161,-422 161,-416 161,-416 161,-413 164,-410 167,-410 167,-410 209,-410 209,-410 212,-410 215,-413 215,-416 215,-416 215,-422 215,-422 215,-425 212,-428 209,-428"/>
<text text-anchor="start" x="178" y="-416.8" font-family="Helvetica,sans-Serif" font-size="9.00">cli.js</text>
</a>
</g>
</g>
<!-- core/lib/components/balena/sdk.js -->
<g id="node14" class="node">
<title>core/lib/components/balena/sdk.js</title>
<g id="a_node14"><a xlink:href="core/lib/components/balena/sdk.js" xlink:title="sdk.js">
<path fill="#ffffcc" stroke="black" d="M209,-398C209,-398 167,-398 167,-398 164,-398 161,-395 161,-392 161,-392 161,-386 161,-386 161,-383 164,-380 167,-380 167,-380 209,-380 209,-380 212,-380 215,-383 215,-386 215,-386 215,-392 215,-392 215,-395 212,-398 209,-398"/>
<text text-anchor="start" x="175" y="-386.8" font-family="Helvetica,sans-Serif" font-size="9.00">sdk.js</text>
</a>
</g>
</g>
<!-- core/lib/components/balena/sdk.js&#45;&gt;core/lib/common/utils.js -->
<g id="edge10" class="edge">
<title>core/lib/components/balena/sdk.js&#45;&gt;core/lib/common/utils.js</title>
<path fill="none" stroke="#000000" stroke-width="2" stroke-opacity="0.200000" d="M215.09,-382.95C223.48,-379.65 231.92,-374.63 237,-367 251.36,-345.44 235.93,-158.26 245,-134 248.23,-125.36 254.34,-117.22 260.21,-110.79"/>
<polygon fill="#000000" fill-opacity="0.200000" stroke="#000000" stroke-width="2" stroke-opacity="0.200000" points="261.96,-112.01 264.6,-106.23 258.93,-109.1 261.96,-112.01"/>
</g>
<!-- core/lib/components/os/balenaos.js -->
<g id="node15" class="node">
<title>core/lib/components/os/balenaos.js</title>
<g id="a_node15"><a xlink:href="core/lib/components/os/balenaos.js" xlink:title="balenaos.js">
<path fill="#ccffcc" stroke="black" d="M215,-338C215,-338 161,-338 161,-338 158,-338 155,-335 155,-332 155,-332 155,-326 155,-326 155,-323 158,-320 161,-320 161,-320 215,-320 215,-320 218,-320 221,-323 221,-326 221,-326 221,-332 221,-332 221,-335 218,-338 215,-338"/>
<text text-anchor="start" x="163" y="-326.8" font-family="Helvetica,sans-Serif" font-size="9.00">balenaos.js</text>
</a>
</g>
</g>
<!-- core/lib/main.js -->
<g id="node16" class="node">
<title>core/lib/main.js</title>
<g id="a_node16"><a xlink:href="core/lib/main.js" xlink:title="main.js">
<path fill="#ffffcc" stroke="black" d="M209,-72C209,-72 167,-72 167,-72 164,-72 161,-69 161,-66 161,-66 161,-60 161,-60 161,-57 164,-54 167,-54 167,-54 209,-54 209,-54 212,-54 215,-57 215,-60 215,-60 215,-66 215,-66 215,-69 212,-72 209,-72"/>
<text text-anchor="start" x="171.5" y="-60.8" font-family="Helvetica,sans-Serif" font-size="9.00">main.js</text>
</a>
</g>
</g>
<!-- core/lib/main.js&#45;&gt;core/lib/common/utils.js -->
<g id="edge11" class="edge">
<title>core/lib/main.js&#45;&gt;core/lib/common/utils.js</title>
<path fill="none" stroke="#000000" stroke-width="2" stroke-opacity="0.200000" d="M215.23,-68.43C222.54,-70.53 230.3,-73.33 237,-77 241.14,-79.27 241.01,-81.47 245,-84 245.55,-84.35 246.11,-84.69 246.69,-85.03"/>
<polygon fill="#000000" fill-opacity="0.200000" stroke="#000000" stroke-width="2" stroke-opacity="0.200000" points="245.74,-86.91 252.01,-87.93 247.74,-83.22 245.74,-86.91"/>
</g>
<!-- core/lib/reports.js -->
<g id="node17" class="node">
<title>core/lib/reports.js</title>
<g id="a_node17"><a xlink:href="core/lib/reports.js" xlink:title="reports.js">
<path fill="#ffffcc" stroke="black" d="M299.5,-42C299.5,-42 252.5,-42 252.5,-42 249.5,-42 246.5,-39 246.5,-36 246.5,-36 246.5,-30 246.5,-30 246.5,-27 249.5,-24 252.5,-24 252.5,-24 299.5,-24 299.5,-24 302.5,-24 305.5,-27 305.5,-30 305.5,-30 305.5,-36 305.5,-36 305.5,-39 302.5,-42 299.5,-42"/>
<text text-anchor="start" x="254.5" y="-30.8" font-family="Helvetica,sans-Serif" font-size="9.00">reports.js</text>
</a>
</g>
</g>
<!-- core/lib/main.js&#45;&gt;core/lib/reports.js -->
<g id="edge12" class="edge">
<title>core/lib/main.js&#45;&gt;core/lib/reports.js</title>
<path fill="none" stroke="#000000" stroke-width="2" stroke-opacity="0.200000" d="M214.8,-54C223.73,-50.88 233.85,-47.35 243.21,-44.09"/>
<polygon fill="#000000" fill-opacity="0.200000" stroke="#000000" stroke-width="2" stroke-opacity="0.200000" points="243.94,-46.06 248.92,-42.1 242.56,-42.09 243.94,-46.06"/>
</g>
<!-- core/lib/state.js -->
<g id="node18" class="node">
<title>core/lib/state.js</title>
<g id="a_node18"><a xlink:href="core/lib/state.js" xlink:title="state.js">
<path fill="#ffffcc" stroke="black" d="M297,-72C297,-72 255,-72 255,-72 252,-72 249,-69 249,-66 249,-66 249,-60 249,-60 249,-57 252,-54 255,-54 255,-54 297,-54 297,-54 300,-54 303,-57 303,-60 303,-60 303,-66 303,-66 303,-69 300,-72 297,-72"/>
<text text-anchor="start" x="259.5" y="-60.8" font-family="Helvetica,sans-Serif" font-size="9.00">state.js</text>
</a>
</g>
</g>
<!-- core/lib/main.js&#45;&gt;core/lib/state.js -->
<g id="edge13" class="edge">
<title>core/lib/main.js&#45;&gt;core/lib/state.js</title>
<path fill="none" stroke="#000000" stroke-width="2" stroke-opacity="0.200000" d="M215.27,-63C223.94,-63 233.68,-63 242.75,-63"/>
<polygon fill="#000000" fill-opacity="0.200000" stroke="#000000" stroke-width="2" stroke-opacity="0.200000" points="242.89,-65.1 248.89,-63 242.89,-60.9 242.89,-65.1"/>
</g>
<!-- core/lib/scripts/format.js -->
<g id="node19" class="node">
<title>core/lib/scripts/format.js</title>
<g id="a_node19"><a xlink:href="core/lib/scripts/format.js" xlink:title="format.js">
<path fill="#ffffcc" stroke="black" d="M210,-270C210,-270 166,-270 166,-270 163,-270 160,-267 160,-264 160,-264 160,-258 160,-258 160,-255 163,-252 166,-252 166,-252 210,-252 210,-252 213,-252 216,-255 216,-258 216,-258 216,-264 216,-264 216,-267 213,-270 210,-270"/>
<text text-anchor="start" x="168" y="-258.8" font-family="Helvetica,sans-Serif" font-size="9.00">format.js</text>
</a>
</g>
</g>
<!-- core/lib/scripts/post.js -->
<g id="node20" class="node">
<title>core/lib/scripts/post.js</title>
<g id="a_node20"><a xlink:href="core/lib/scripts/post.js" xlink:title="post.js">
<path fill="#ffffcc" stroke="black" d="M102.5,-270C102.5,-270 60.5,-270 60.5,-270 57.5,-270 54.5,-267 54.5,-264 54.5,-264 54.5,-258 54.5,-258 54.5,-255 57.5,-252 60.5,-252 60.5,-252 102.5,-252 102.5,-252 105.5,-252 108.5,-255 108.5,-258 108.5,-258 108.5,-264 108.5,-264 108.5,-267 105.5,-270 102.5,-270"/>
<text text-anchor="start" x="66.5" y="-258.8" font-family="Helvetica,sans-Serif" font-size="9.00">post.js</text>
</a>
</g>
</g>
<!-- core/lib/scripts/post.js&#45;&gt;core/lib/scripts/format.js -->
<g id="edge14" class="edge">
<title>core/lib/scripts/post.js&#45;&gt;core/lib/scripts/format.js</title>
<path fill="none" stroke="#000000" stroke-width="2" stroke-opacity="0.200000" d="M108.6,-261C122.25,-261 139.1,-261 153.68,-261"/>
<polygon fill="#000000" fill-opacity="0.200000" stroke="#000000" stroke-width="2" stroke-opacity="0.200000" points="153.78,-263.1 159.78,-261 153.78,-258.9 153.78,-263.1"/>
</g>
</g>
</svg>
