<?xml version="1.0" encoding="UTF-8" standalone="no"?>
<!DOCTYPE svg PUBLIC "-//W3C//DTD SVG 1.1//EN"
 "http://www.w3.org/Graphics/SVG/1.1/DTD/svg11.dtd">
<!-- Generated by graphviz version 2.43.0 (0)
 -->
<!-- Title: dependency&#45;cruiser output Pages: 1 -->
<svg width="465pt" height="812pt"
 viewBox="0.00 0.00 465.00 812.00" xmlns="http://www.w3.org/2000/svg" xmlns:xlink="http://www.w3.org/1999/xlink">
<g id="graph0" class="graph" transform="scale(1 1) rotate(0) translate(4 808)">
<title>dependency&#45;cruiser output</title>
<polygon fill="white" stroke="transparent" points="-4,4 -4,-808 461,-808 461,4 -4,4"/>
<g id="clust1" class="cluster">
<title>cluster_worker</title>
<path fill="#ffffff" stroke="black" stroke-width="2" d="M20,-8C20,-8 437,-8 437,-8 443,-8 449,-14 449,-20 449,-20 449,-784 449,-784 449,-790 443,-796 437,-796 437,-796 20,-796 20,-796 14,-796 8,-790 8,-784 8,-784 8,-20 8,-20 8,-14 14,-8 20,-8"/>
<text text-anchor="middle" x="228.5" y="-784.8" font-family="Helvetica,sans-Serif" font-weight="bold" font-size="9.00">worker</text>
</g>
<g id="clust2" class="cluster">
<title>cluster_worker/bin</title>
<path fill="#ffffff" stroke="black" stroke-width="2" d="M50,-432C50,-432 96,-432 96,-432 102,-432 108,-438 108,-444 108,-444 108,-472 108,-472 108,-478 102,-484 96,-484 96,-484 50,-484 50,-484 44,-484 38,-478 38,-472 38,-472 38,-444 38,-444 38,-438 44,-432 50,-432"/>
<text text-anchor="middle" x="73" y="-472.8" font-family="Helvetica,sans-Serif" font-weight="bold" font-size="9.00">bin</text>
</g>
<g id="clust3" class="cluster">
<title>cluster_worker/build</title>
<path fill="#ffffff" stroke="black" stroke-width="2" d="M38,-500C38,-500 429,-500 429,-500 435,-500 441,-506 441,-512 441,-512 441,-758 441,-758 441,-764 435,-770 429,-770 429,-770 38,-770 38,-770 32,-770 26,-764 26,-758 26,-758 26,-512 26,-512 26,-506 32,-500 38,-500"/>
<text text-anchor="middle" x="233.5" y="-758.8" font-family="Helvetica,sans-Serif" font-weight="bold" font-size="9.00">build</text>
</g>
<g id="clust4" class="cluster">
<title>cluster_worker/build/bin</title>
<path fill="#ffffff" stroke="black" stroke-width="2" d="M46,-596C46,-596 100,-596 100,-596 106,-596 112,-602 112,-608 112,-608 112,-666 112,-666 112,-672 106,-678 100,-678 100,-678 46,-678 46,-678 40,-678 34,-672 34,-666 34,-666 34,-608 34,-608 34,-602 40,-596 46,-596"/>
<text text-anchor="middle" x="73" y="-666.8" font-family="Helvetica,sans-Serif" font-weight="bold" font-size="9.00">bin</text>
</g>
<g id="clust5" class="cluster">
<title>cluster_worker/build/lib</title>
<path fill="#ffffff" stroke="black" stroke-width="2" d="M154,-508C154,-508 421,-508 421,-508 427,-508 433,-514 433,-520 433,-520 433,-732 433,-732 433,-738 427,-744 421,-744 421,-744 154,-744 154,-744 148,-744 142,-738 142,-732 142,-732 142,-520 142,-520 142,-514 148,-508 154,-508"/>
<text text-anchor="middle" x="287.5" y="-732.8" font-family="Helvetica,sans-Serif" font-weight="bold" font-size="9.00">lib</text>
</g>
<g id="clust6" class="cluster">
<title>cluster_worker/build/lib/helpers</title>
<path fill="#ffffff" stroke="black" stroke-width="2" d="M345,-516C345,-516 413,-516 413,-516 419,-516 425,-522 425,-528 425,-528 425,-706 425,-706 425,-712 419,-718 413,-718 413,-718 345,-718 345,-718 339,-718 333,-712 333,-706 333,-706 333,-528 333,-528 333,-522 339,-516 345,-516"/>
<text text-anchor="middle" x="379" y="-706.8" font-family="Helvetica,sans-Serif" font-weight="bold" font-size="9.00">helpers</text>
</g>
<g id="clust7" class="cluster">
<title>cluster_worker/build/lib/workers</title>
<path fill="#ffffff" stroke="black" stroke-width="2" d="M252,-534C252,-534 313,-534 313,-534 319,-534 325,-540 325,-546 325,-546 325,-664 325,-664 325,-670 319,-676 313,-676 313,-676 252,-676 252,-676 246,-676 240,-670 240,-664 240,-664 240,-546 240,-546 240,-540 246,-534 252,-534"/>
<text text-anchor="middle" x="282.5" y="-664.8" font-family="Helvetica,sans-Serif" font-weight="bold" font-size="9.00">workers</text>
</g>
<g id="clust8" class="cluster">
<title>cluster_worker/config</title>
<path fill="#ffffff" stroke="black" stroke-width="2" d="M48,-355C48,-355 98,-355 98,-355 104,-355 110,-361 110,-367 110,-367 110,-395 110,-395 110,-401 104,-407 98,-407 98,-407 48,-407 48,-407 42,-407 36,-401 36,-395 36,-395 36,-367 36,-367 36,-361 42,-355 48,-355"/>
<text text-anchor="middle" x="73" y="-395.8" font-family="Helvetica,sans-Serif" font-weight="bold" font-size="9.00">config</text>
</g>
<g id="clust9" class="cluster">
<title>cluster_worker/lib</title>
<path fill="#ffffff" stroke="black" stroke-width="2" d="M158,-346C158,-346 416.5,-346 416.5,-346 422.5,-346 428.5,-352 428.5,-358 428.5,-358 428.5,-480 428.5,-480 428.5,-486 422.5,-492 416.5,-492 416.5,-492 158,-492 158,-492 152,-492 146,-486 146,-480 146,-480 146,-358 146,-358 146,-352 152,-346 158,-346"/>
<text text-anchor="middle" x="287.25" y="-480.8" font-family="Helvetica,sans-Serif" font-weight="bold" font-size="9.00">lib</text>
</g>
<g id="clust10" class="cluster">
<title>cluster_worker/lib/helpers</title>
<path fill="#ffffff" stroke="black" stroke-width="2" d="M349.5,-354C349.5,-354 408.5,-354 408.5,-354 414.5,-354 420.5,-360 420.5,-366 420.5,-366 420.5,-454 420.5,-454 420.5,-460 414.5,-466 408.5,-466 408.5,-466 349.5,-466 349.5,-466 343.5,-466 337.5,-460 337.5,-454 337.5,-454 337.5,-366 337.5,-366 337.5,-360 343.5,-354 349.5,-354"/>
<text text-anchor="middle" x="379" y="-454.8" font-family="Helvetica,sans-Serif" font-weight="bold" font-size="9.00">helpers</text>
</g>
<g id="clust11" class="cluster">
<title>cluster_worker/lib/workers</title>
<path fill="#ffffff" stroke="black" stroke-width="2" d="M256.5,-354C256.5,-354 308.5,-354 308.5,-354 314.5,-354 320.5,-360 320.5,-366 320.5,-366 320.5,-424 320.5,-424 320.5,-430 314.5,-436 308.5,-436 308.5,-436 256.5,-436 256.5,-436 250.5,-436 244.5,-430 244.5,-424 244.5,-424 244.5,-366 244.5,-366 244.5,-360 250.5,-354 256.5,-354"/>
<text text-anchor="middle" x="282.5" y="-424.8" font-family="Helvetica,sans-Serif" font-weight="bold" font-size="9.00">workers</text>
</g>
<g id="clust12" class="cluster">
<title>cluster_worker/test</title>
<path fill="#ffffff" stroke="black" stroke-width="2" d="M34.5,-196C34.5,-196 220,-196 220,-196 226,-196 232,-202 232,-208 232,-208 232,-326 232,-326 232,-332 226,-338 220,-338 220,-338 34.5,-338 34.5,-338 28.5,-338 22.5,-332 22.5,-326 22.5,-326 22.5,-208 22.5,-208 22.5,-202 28.5,-196 34.5,-196"/>
<text text-anchor="middle" x="127.25" y="-326.8" font-family="Helvetica,sans-Serif" font-weight="bold" font-size="9.00">test</text>
</g>
<g id="clust13" class="cluster">
<title>cluster_worker/test/mock</title>
<path fill="#ffffff" stroke="black" stroke-width="2" d="M150,-204C150,-204 212,-204 212,-204 218,-204 224,-210 224,-216 224,-216 224,-244 224,-244 224,-250 218,-256 212,-256 212,-256 150,-256 150,-256 144,-256 138,-250 138,-244 138,-244 138,-216 138,-216 138,-210 144,-204 150,-204"/>
<text text-anchor="middle" x="181" y="-244.8" font-family="Helvetica,sans-Serif" font-weight="bold" font-size="9.00">mock</text>
</g>
<g id="clust14" class="cluster">
<title>cluster_worker/typings</title>
<path fill="#ffffff" stroke="black" stroke-width="2" d="M28,-16C28,-16 118,-16 118,-16 124,-16 130,-22 130,-28 130,-28 130,-176 130,-176 130,-182 124,-188 118,-188 118,-188 28,-188 28,-188 22,-188 16,-182 16,-176 16,-176 16,-28 16,-28 16,-22 22,-16 28,-16"/>
<text text-anchor="middle" x="73" y="-176.8" font-family="Helvetica,sans-Serif" font-weight="bold" font-size="9.00">typings</text>
</g>
<!-- worker/bin/index.ts -->
<g id="node1" class="node">
<title>worker/bin/index.ts</title>
<g id="a_node1"><a xlink:href="worker/bin/index.ts" xlink:title="index.ts">
<path fill="#ddfeff" stroke="black" d="M94,-458C94,-458 52,-458 52,-458 49,-458 46,-455 46,-452 46,-452 46,-446 46,-446 46,-443 49,-440 52,-440 52,-440 94,-440 94,-440 97,-440 100,-443 100,-446 100,-446 100,-452 100,-452 100,-455 97,-458 94,-458"/>
<text text-anchor="start" x="54.5" y="-446.8" font-family="Helvetica,sans-Serif" font-size="9.00">index.ts</text>
</a>
</g>
</g>
<!-- worker/lib/helpers/index.ts -->
<g id="node2" class="node">
<title>worker/lib/helpers/index.ts</title>
<g id="a_node2"><a xlink:href="worker/lib/helpers/index.ts" xlink:title="index.ts">
<path fill="#ddfeff" stroke="black" d="M400,-440C400,-440 358,-440 358,-440 355,-440 352,-437 352,-434 352,-434 352,-428 352,-428 352,-425 355,-422 358,-422 358,-422 400,-422 400,-422 403,-422 406,-425 406,-428 406,-428 406,-434 406,-434 406,-437 403,-440 400,-440"/>
<text text-anchor="start" x="360.5" y="-428.8" font-family="Helvetica,sans-Serif" font-size="9.00">index.ts</text>
</a>
</g>
</g>
<!-- worker/bin/index.ts&#45;&gt;worker/lib/helpers/index.ts -->
<g id="edge1" class="edge">
<title>worker/bin/index.ts&#45;&gt;worker/lib/helpers/index.ts</title>
<path fill="none" stroke="#000000" stroke-width="2" stroke-opacity="0.200000" d="M100,-453.29C145.97,-460.04 244.34,-470.75 325,-454 335.74,-451.77 346.97,-447.25 356.31,-442.81"/>
<polygon fill="#000000" fill-opacity="0.200000" stroke="#000000" stroke-width="2" stroke-opacity="0.200000" points="357.41,-444.6 361.87,-440.07 355.56,-440.84 357.41,-444.6"/>
</g>
<!-- worker/lib/index.ts -->
<g id="node3" class="node">
<title>worker/lib/index.ts</title>
<g id="a_node3"><a xlink:href="worker/lib/index.ts" xlink:title="index.ts">
<path fill="#ddfeff" stroke="black" d="M202,-410C202,-410 160,-410 160,-410 157,-410 154,-407 154,-404 154,-404 154,-398 154,-398 154,-395 157,-392 160,-392 160,-392 202,-392 202,-392 205,-392 208,-395 208,-398 208,-398 208,-404 208,-404 208,-407 205,-410 202,-410"/>
<text text-anchor="start" x="162.5" y="-398.8" font-family="Helvetica,sans-Serif" font-size="9.00">index.ts</text>
</a>
</g>
</g>
<!-- worker/bin/index.ts&#45;&gt;worker/lib/index.ts -->
<g id="edge2" class="edge">
<title>worker/bin/index.ts&#45;&gt;worker/lib/index.ts</title>
<path fill="none" stroke="#000000" stroke-width="2" stroke-opacity="0.200000" d="M93.94,-439.97C111,-432.24 135.68,-421.07 154.24,-412.66"/>
<polygon fill="#000000" fill-opacity="0.200000" stroke="#000000" stroke-width="2" stroke-opacity="0.200000" points="155.19,-414.54 159.79,-410.15 153.46,-410.71 155.19,-414.54"/>
</g>
<!-- worker/lib/index.ts&#45;&gt;worker/lib/helpers/index.ts -->
<g id="edge11" class="edge">
<title>worker/lib/index.ts&#45;&gt;worker/lib/helpers/index.ts</title>
<path fill="none" stroke="#000000" stroke-width="2" stroke-opacity="0.200000" d="M191.76,-410.01C202.6,-419.35 221.08,-433.35 240,-439 275.06,-449.46 317.31,-444.63 345.75,-439"/>
<polygon fill="#000000" fill-opacity="0.200000" stroke="#000000" stroke-width="2" stroke-opacity="0.200000" points="346.5,-440.99 351.95,-437.72 345.65,-436.88 346.5,-440.99"/>
</g>
<!-- worker/lib/workers/qemu.ts -->
<g id="node21" class="node">
<title>worker/lib/workers/qemu.ts</title>
<g id="a_node21"><a xlink:href="worker/lib/workers/qemu.ts" xlink:title="qemu.ts">
<path fill="#ddfeff" stroke="black" d="M303.5,-410C303.5,-410 261.5,-410 261.5,-410 258.5,-410 255.5,-407 255.5,-404 255.5,-404 255.5,-398 255.5,-398 255.5,-395 258.5,-392 261.5,-392 261.5,-392 303.5,-392 303.5,-392 306.5,-392 309.5,-395 309.5,-398 309.5,-398 309.5,-404 309.5,-404 309.5,-407 306.5,-410 303.5,-410"/>
<text text-anchor="start" x="263.5" y="-398.8" font-family="Helvetica,sans-Serif" font-size="9.00">qemu.ts</text>
</a>
</g>
</g>
<!-- worker/lib/index.ts&#45;&gt;worker/lib/workers/qemu.ts -->
<g id="edge12" class="edge">
<title>worker/lib/index.ts&#45;&gt;worker/lib/workers/qemu.ts</title>
<path fill="none" stroke="#000000" stroke-width="2" stroke-opacity="0.200000" d="M208.14,-401C220.61,-401 235.66,-401 248.87,-401"/>
<polygon fill="#000000" fill-opacity="0.200000" stroke="#000000" stroke-width="2" stroke-opacity="0.200000" points="249.19,-403.1 255.19,-401 249.19,-398.9 249.19,-403.1"/>
</g>
<!-- worker/lib/workers/testbot.ts -->
<g id="node22" class="node">
<title>worker/lib/workers/testbot.ts</title>
<g id="a_node22"><a xlink:href="worker/lib/workers/testbot.ts" xlink:title="testbot.ts">
<path fill="#ddfeff" stroke="black" d="M306.5,-380C306.5,-380 258.5,-380 258.5,-380 255.5,-380 252.5,-377 252.5,-374 252.5,-374 252.5,-368 252.5,-368 252.5,-365 255.5,-362 258.5,-362 258.5,-362 306.5,-362 306.5,-362 309.5,-362 312.5,-365 312.5,-368 312.5,-368 312.5,-374 312.5,-374 312.5,-377 309.5,-380 306.5,-380"/>
<text text-anchor="start" x="260.5" y="-368.8" font-family="Helvetica,sans-Serif" font-size="9.00">testbot.ts</text>
</a>
</g>
</g>
<!-- worker/lib/index.ts&#45;&gt;worker/lib/workers/testbot.ts -->
<g id="edge13" class="edge">
<title>worker/lib/index.ts&#45;&gt;worker/lib/workers/testbot.ts</title>
<path fill="none" stroke="#000000" stroke-width="2" stroke-opacity="0.200000" d="M208.14,-393.12C219.82,-389.6 233.76,-385.39 246.33,-381.6"/>
<polygon fill="#000000" fill-opacity="0.200000" stroke="#000000" stroke-width="2" stroke-opacity="0.200000" points="247.24,-383.52 252.38,-379.78 246.03,-379.5 247.24,-383.52"/>
</g>
<!-- worker/build/bin/index.d.ts -->
<g id="node4" class="node">
<title>worker/build/bin/index.d.ts</title>
<g id="a_node4"><a xlink:href="worker/build/bin/index.d.ts" xlink:title="index.d.ts">
<path fill="#ccffcc" stroke="black" d="M98,-652C98,-652 48,-652 48,-652 45,-652 42,-649 42,-646 42,-646 42,-640 42,-640 42,-637 45,-634 48,-634 48,-634 98,-634 98,-634 101,-634 104,-637 104,-640 104,-640 104,-646 104,-646 104,-649 101,-652 98,-652"/>
<text text-anchor="start" x="50" y="-640.8" font-family="Helvetica,sans-Serif" font-size="9.00">index.d.ts</text>
</a>
</g>
</g>
<!-- worker/build/bin/index.js -->
<g id="node5" class="node">
<title>worker/build/bin/index.js</title>
<g id="a_node5"><a xlink:href="worker/build/bin/index.js" xlink:title="index.js">
<path fill="#ffffcc" stroke="black" d="M94,-622C94,-622 52,-622 52,-622 49,-622 46,-619 46,-616 46,-616 46,-610 46,-610 46,-607 49,-604 52,-604 52,-604 94,-604 94,-604 97,-604 100,-607 100,-610 100,-610 100,-616 100,-616 100,-619 97,-622 94,-622"/>
<text text-anchor="start" x="55.5" y="-610.8" font-family="Helvetica,sans-Serif" font-size="9.00">index.js</text>
</a>
</g>
</g>
<!-- worker/build/lib/index.js -->
<g id="node6" class="node">
<title>worker/build/lib/index.js</title>
<g id="a_node6"><a xlink:href="worker/build/lib/index.js" xlink:title="index.js">
<path fill="#ffffcc" stroke="black" d="M202,-622C202,-622 160,-622 160,-622 157,-622 154,-619 154,-616 154,-616 154,-610 154,-610 154,-607 157,-604 160,-604 160,-604 202,-604 202,-604 205,-604 208,-607 208,-610 208,-610 208,-616 208,-616 208,-619 205,-622 202,-622"/>
<text text-anchor="start" x="163.5" y="-610.8" font-family="Helvetica,sans-Serif" font-size="9.00">index.js</text>
</a>
</g>
</g>
<!-- worker/build/bin/index.js&#45;&gt;worker/build/lib/index.js -->
<g id="edge3" class="edge">
<title>worker/build/bin/index.js&#45;&gt;worker/build/lib/index.js</title>
<path fill="none" stroke="#000000" stroke-width="2" stroke-opacity="0.200000" d="M100.2,-613C114.47,-613 132.26,-613 147.41,-613"/>
<polygon fill="#000000" fill-opacity="0.200000" stroke="#000000" stroke-width="2" stroke-opacity="0.200000" points="147.73,-615.1 153.73,-613 147.73,-610.9 147.73,-615.1"/>
</g>
<!-- worker/build/lib/helpers/index.js -->
<g id="node10" class="node">
<title>worker/build/lib/helpers/index.js</title>
<g id="a_node10"><a xlink:href="worker/build/lib/helpers/index.js" xlink:title="index.js">
<path fill="#ffffcc" stroke="black" d="M400,-542C400,-542 358,-542 358,-542 355,-542 352,-539 352,-536 352,-536 352,-530 352,-530 352,-527 355,-524 358,-524 358,-524 400,-524 400,-524 403,-524 406,-527 406,-530 406,-530 406,-536 406,-536 406,-539 403,-542 400,-542"/>
<text text-anchor="start" x="361.5" y="-530.8" font-family="Helvetica,sans-Serif" font-size="9.00">index.js</text>
</a>
</g>
</g>
<!-- worker/build/lib/index.js&#45;&gt;worker/build/lib/helpers/index.js -->
<g id="edge4" class="edge">
<title>worker/build/lib/index.js&#45;&gt;worker/build/lib/helpers/index.js</title>
<path fill="none" stroke="#000000" stroke-width="2" stroke-opacity="0.200000" d="M202.57,-603.95C213.03,-598.28 224.98,-589.96 232,-579 243.66,-560.78 223.5,-544.98 240,-531 269.57,-505.95 316.85,-513.35 347.66,-522.19"/>
<polygon fill="#000000" fill-opacity="0.200000" stroke="#000000" stroke-width="2" stroke-opacity="0.200000" points="347.25,-524.26 353.6,-523.97 348.45,-520.24 347.25,-524.26"/>
</g>
<!-- worker/build/lib/workers/testbot.js -->
<g id="node14" class="node">
<title>worker/build/lib/workers/testbot.js</title>
<g id="a_node14"><a xlink:href="worker/build/lib/workers/testbot.js" xlink:title="testbot.js">
<path fill="#ffffcc" stroke="black" d="M306,-650C306,-650 259,-650 259,-650 256,-650 253,-647 253,-644 253,-644 253,-638 253,-638 253,-635 256,-632 259,-632 259,-632 306,-632 306,-632 309,-632 312,-635 312,-638 312,-638 312,-644 312,-644 312,-647 309,-650 306,-650"/>
<text text-anchor="start" x="261" y="-638.8" font-family="Helvetica,sans-Serif" font-size="9.00">testbot.js</text>
</a>
</g>
</g>
<!-- worker/build/lib/index.js&#45;&gt;worker/build/lib/workers/testbot.js -->
<g id="edge5" class="edge">
<title>worker/build/lib/index.js&#45;&gt;worker/build/lib/workers/testbot.js</title>
<path fill="none" stroke="#000000" stroke-width="2" stroke-opacity="0.200000" d="M208.14,-620.36C219.92,-623.67 233.99,-627.63 246.65,-631.19"/>
<polygon fill="#000000" fill-opacity="0.200000" stroke="#000000" stroke-width="2" stroke-opacity="0.200000" points="246.39,-633.3 252.73,-632.9 247.53,-629.26 246.39,-633.3"/>
</g>
<!-- worker/build/lib/helpers/graphics.d.ts -->
<g id="node7" class="node">
<title>worker/build/lib/helpers/graphics.d.ts</title>
<g id="a_node7"><a xlink:href="worker/build/lib/helpers/graphics.d.ts" xlink:title="graphics.d.ts">
<path fill="#ccffcc" stroke="black" d="M411,-692C411,-692 347,-692 347,-692 344,-692 341,-689 341,-686 341,-686 341,-680 341,-680 341,-677 344,-674 347,-674 347,-674 411,-674 411,-674 414,-674 417,-677 417,-680 417,-680 417,-686 417,-686 417,-689 414,-692 411,-692"/>
<text text-anchor="start" x="349" y="-680.8" font-family="Helvetica,sans-Serif" font-size="9.00">graphics.d.ts</text>
</a>
</g>
</g>
<!-- worker/build/lib/helpers/graphics.js -->
<g id="node8" class="node">
<title>worker/build/lib/helpers/graphics.js</title>
<g id="a_node8"><a xlink:href="worker/build/lib/helpers/graphics.js" xlink:title="graphics.js">
<path fill="#ffffcc" stroke="black" d="M405.5,-662C405.5,-662 352.5,-662 352.5,-662 349.5,-662 346.5,-659 346.5,-656 346.5,-656 346.5,-650 346.5,-650 346.5,-647 349.5,-644 352.5,-644 352.5,-644 405.5,-644 405.5,-644 408.5,-644 411.5,-647 411.5,-650 411.5,-650 411.5,-656 411.5,-656 411.5,-659 408.5,-662 405.5,-662"/>
<text text-anchor="start" x="354.5" y="-650.8" font-family="Helvetica,sans-Serif" font-size="9.00">graphics.js</text>
</a>
</g>
</g>
<!-- worker/build/lib/helpers/index.d.ts -->
<g id="node9" class="node">
<title>worker/build/lib/helpers/index.d.ts</title>
<g id="a_node9"><a xlink:href="worker/build/lib/helpers/index.d.ts" xlink:title="index.d.ts">
<path fill="#ccffcc" stroke="black" d="M404,-632C404,-632 354,-632 354,-632 351,-632 348,-629 348,-626 348,-626 348,-620 348,-620 348,-617 351,-614 354,-614 354,-614 404,-614 404,-614 407,-614 410,-617 410,-620 410,-620 410,-626 410,-626 410,-629 407,-632 404,-632"/>
<text text-anchor="start" x="356" y="-620.8" font-family="Helvetica,sans-Serif" font-size="9.00">index.d.ts</text>
</a>
</g>
</g>
<!-- worker/build/lib/helpers/nm.d.ts -->
<g id="node11" class="node">
<title>worker/build/lib/helpers/nm.d.ts</title>
<g id="a_node11"><a xlink:href="worker/build/lib/helpers/nm.d.ts" xlink:title="nm.d.ts">
<path fill="#ccffcc" stroke="black" d="M400,-572C400,-572 358,-572 358,-572 355,-572 352,-569 352,-566 352,-566 352,-560 352,-560 352,-557 355,-554 358,-554 358,-554 400,-554 400,-554 403,-554 406,-557 406,-560 406,-560 406,-566 406,-566 406,-569 403,-572 400,-572"/>
<text text-anchor="start" x="361" y="-560.8" font-family="Helvetica,sans-Serif" font-size="9.00">nm.d.ts</text>
</a>
</g>
</g>
<!-- worker/build/lib/helpers/nm.js -->
<g id="node12" class="node">
<title>worker/build/lib/helpers/nm.js</title>
<g id="a_node12"><a xlink:href="worker/build/lib/helpers/nm.js" xlink:title="nm.js">
<path fill="#ffffcc" stroke="black" d="M400,-602C400,-602 358,-602 358,-602 355,-602 352,-599 352,-596 352,-596 352,-590 352,-590 352,-587 355,-584 358,-584 358,-584 400,-584 400,-584 403,-584 406,-587 406,-590 406,-590 406,-596 406,-596 406,-599 403,-602 400,-602"/>
<text text-anchor="start" x="366.5" y="-590.8" font-family="Helvetica,sans-Serif" font-size="9.00">nm.js</text>
</a>
</g>
</g>
<!-- worker/build/lib/index.d.ts -->
<g id="node13" class="node">
<title>worker/build/lib/index.d.ts</title>
<g id="a_node13"><a xlink:href="worker/build/lib/index.d.ts" xlink:title="index.d.ts">
<path fill="#ccffcc" stroke="black" d="M206,-573C206,-573 156,-573 156,-573 153,-573 150,-570 150,-567 150,-567 150,-561 150,-561 150,-558 153,-555 156,-555 156,-555 206,-555 206,-555 209,-555 212,-558 212,-561 212,-561 212,-567 212,-567 212,-570 209,-573 206,-573"/>
<text text-anchor="start" x="158" y="-561.8" font-family="Helvetica,sans-Serif" font-size="9.00">index.d.ts</text>
</a>
</g>
</g>
<!-- worker/build/lib/workers/testbot.js&#45;&gt;worker/build/lib/helpers/graphics.js -->
<g id="edge9" class="edge">
<title>worker/build/lib/workers/testbot.js&#45;&gt;worker/build/lib/helpers/graphics.js</title>
<path fill="none" stroke="#000000" stroke-width="2" stroke-opacity="0.200000" d="M312.11,-644.63C320.93,-645.75 330.79,-647 340.13,-648.19"/>
<polygon fill="#000000" fill-opacity="0.200000" stroke="#000000" stroke-width="2" stroke-opacity="0.200000" points="339.97,-650.29 346.19,-648.96 340.5,-646.12 339.97,-650.29"/>
</g>
<!-- worker/build/lib/workers/testbot.js&#45;&gt;worker/build/lib/helpers/index.js -->
<g id="edge8" class="edge">
<title>worker/build/lib/workers/testbot.js&#45;&gt;worker/build/lib/helpers/index.js</title>
<path fill="none" stroke="#000000" stroke-width="2" stroke-opacity="0.200000" d="M312.16,-635.44C317.1,-633.26 321.7,-630.23 325,-626 346.45,-598.54 311.21,-575.19 333,-548 336.33,-543.84 340.85,-540.83 345.75,-538.65"/>
<polygon fill="#000000" fill-opacity="0.200000" stroke="#000000" stroke-width="2" stroke-opacity="0.200000" points="346.74,-540.52 351.62,-536.45 345.27,-536.58 346.74,-540.52"/>
</g>
<!-- worker/build/lib/workers/testbot.js&#45;&gt;worker/build/lib/helpers/nm.js -->
<g id="edge10" class="edge">
<title>worker/build/lib/workers/testbot.js&#45;&gt;worker/build/lib/helpers/nm.js</title>
<path fill="none" stroke="#000000" stroke-width="2" stroke-opacity="0.200000" d="M312.03,-634.17C316.75,-632.11 321.3,-629.45 325,-626 331.41,-620.03 326.52,-613.88 333,-608 336.77,-604.58 341.34,-601.93 346.11,-599.89"/>
<polygon fill="#000000" fill-opacity="0.200000" stroke="#000000" stroke-width="2" stroke-opacity="0.200000" points="346.89,-601.84 351.76,-597.76 345.4,-597.91 346.89,-601.84"/>
</g>
<!-- worker/build/lib/workers/qemu.d.ts -->
<g id="node15" class="node">
<title>worker/build/lib/workers/qemu.d.ts</title>
<g id="a_node15"><a xlink:href="worker/build/lib/workers/qemu.d.ts" xlink:title="qemu.d.ts">
<path fill="#ccffcc" stroke="black" d="M308,-620C308,-620 257,-620 257,-620 254,-620 251,-617 251,-614 251,-614 251,-608 251,-608 251,-605 254,-602 257,-602 257,-602 308,-602 308,-602 311,-602 314,-605 314,-608 314,-608 314,-614 314,-614 314,-617 311,-620 308,-620"/>
<text text-anchor="start" x="259" y="-608.8" font-family="Helvetica,sans-Serif" font-size="9.00">qemu.d.ts</text>
</a>
</g>
</g>
<!-- worker/build/lib/workers/qemu.js -->
<g id="node16" class="node">
<title>worker/build/lib/workers/qemu.js</title>
<g id="a_node16"><a xlink:href="worker/build/lib/workers/qemu.js" xlink:title="qemu.js">
<path fill="#ffffcc" stroke="black" d="M303.5,-590C303.5,-590 261.5,-590 261.5,-590 258.5,-590 255.5,-587 255.5,-584 255.5,-584 255.5,-578 255.5,-578 255.5,-575 258.5,-572 261.5,-572 261.5,-572 303.5,-572 303.5,-572 306.5,-572 309.5,-575 309.5,-578 309.5,-578 309.5,-584 309.5,-584 309.5,-587 306.5,-590 303.5,-590"/>
<text text-anchor="start" x="264" y="-578.8" font-family="Helvetica,sans-Serif" font-size="9.00">qemu.js</text>
</a>
</g>
</g>
<!-- worker/build/lib/workers/qemu.js&#45;&gt;worker/build/lib/helpers/graphics.js -->
<g id="edge7" class="edge">
<title>worker/build/lib/workers/qemu.js&#45;&gt;worker/build/lib/helpers/graphics.js</title>
<path fill="none" stroke="#000000" stroke-width="2" stroke-opacity="0.200000" d="M309.74,-585.91C315.48,-588.12 321.02,-591.34 325,-596 337.33,-610.46 320.49,-623.7 333,-638 335.24,-640.56 337.92,-642.68 340.85,-644.44"/>
<polygon fill="#000000" fill-opacity="0.200000" stroke="#000000" stroke-width="2" stroke-opacity="0.200000" points="340.04,-646.39 346.34,-647.24 341.95,-642.64 340.04,-646.39"/>
</g>
<!-- worker/build/lib/workers/qemu.js&#45;&gt;worker/build/lib/helpers/index.js -->
<g id="edge6" class="edge">
<title>worker/build/lib/workers/qemu.js&#45;&gt;worker/build/lib/helpers/index.js</title>
<path fill="none" stroke="#000000" stroke-width="2" stroke-opacity="0.200000" d="M309.88,-575.07C315.35,-572.9 320.74,-569.97 325,-566 331.41,-560.03 326.52,-553.88 333,-548 336.77,-544.58 341.34,-541.93 346.11,-539.89"/>
<polygon fill="#000000" fill-opacity="0.200000" stroke="#000000" stroke-width="2" stroke-opacity="0.200000" points="346.89,-541.84 351.76,-537.76 345.4,-537.91 346.89,-541.84"/>
</g>
<!-- worker/build/lib/workers/testbot.d.ts -->
<g id="node17" class="node">
<title>worker/build/lib/workers/testbot.d.ts</title>
<g id="a_node17"><a xlink:href="worker/build/lib/workers/testbot.d.ts" xlink:title="testbot.d.ts">
<path fill="#ccffcc" stroke="black" d="M311,-560C311,-560 254,-560 254,-560 251,-560 248,-557 248,-554 248,-554 248,-548 248,-548 248,-545 251,-542 254,-542 254,-542 311,-542 311,-542 314,-542 317,-545 317,-548 317,-548 317,-554 317,-554 317,-557 314,-560 311,-560"/>
<text text-anchor="start" x="256" y="-548.8" font-family="Helvetica,sans-Serif" font-size="9.00">testbot.d.ts</text>
</a>
</g>
</g>
<!-- worker/config/default.js -->
<g id="node18" class="node">
<title>worker/config/default.js</title>
<g id="a_node18"><a xlink:href="worker/config/default.js" xlink:title="default.js">
<path fill="#ccffcc" stroke="black" d="M96,-381C96,-381 50,-381 50,-381 47,-381 44,-378 44,-375 44,-375 44,-369 44,-369 44,-366 47,-363 50,-363 50,-363 96,-363 96,-363 99,-363 102,-366 102,-369 102,-369 102,-375 102,-375 102,-378 99,-381 96,-381"/>
<text text-anchor="start" x="52" y="-369.8" font-family="Helvetica,sans-Serif" font-size="9.00">default.js</text>
</a>
</g>
</g>
<!-- worker/lib/helpers/graphics.ts -->
<g id="node19" class="node">
<title>worker/lib/helpers/graphics.ts</title>
<g id="a_node19"><a xlink:href="worker/lib/helpers/graphics.ts" xlink:title="graphics.ts">
<path fill="#ddfeff" stroke="black" d="M406.5,-410C406.5,-410 351.5,-410 351.5,-410 348.5,-410 345.5,-407 345.5,-404 345.5,-404 345.5,-398 345.5,-398 345.5,-395 348.5,-392 351.5,-392 351.5,-392 406.5,-392 406.5,-392 409.5,-392 412.5,-395 412.5,-398 412.5,-398 412.5,-404 412.5,-404 412.5,-407 409.5,-410 406.5,-410"/>
<text text-anchor="start" x="353.5" y="-398.8" font-family="Helvetica,sans-Serif" font-size="9.00">graphics.ts</text>
</a>
</g>
</g>
<!-- worker/lib/helpers/nm.ts -->
<g id="node20" class="node">
<title>worker/lib/helpers/nm.ts</title>
<g id="a_node20"><a xlink:href="worker/lib/helpers/nm.ts" xlink:title="nm.ts">
<path fill="#ddfeff" stroke="black" d="M400,-380C400,-380 358,-380 358,-380 355,-380 352,-377 352,-374 352,-374 352,-368 352,-368 352,-365 355,-362 358,-362 358,-362 400,-362 400,-362 403,-362 406,-365 406,-368 406,-368 406,-374 406,-374 406,-377 403,-380 400,-380"/>
<text text-anchor="start" x="365.5" y="-368.8" font-family="Helvetica,sans-Serif" font-size="9.00">nm.ts</text>
</a>
</g>
</g>
<!-- worker/lib/workers/qemu.ts&#45;&gt;worker/lib/helpers/index.ts -->
<g id="edge14" class="edge">
<title>worker/lib/workers/qemu.ts&#45;&gt;worker/lib/helpers/index.ts</title>
<path fill="none" stroke="#000000" stroke-width="2" stroke-opacity="0.200000" d="M309.85,-409.23C314.88,-410.8 320.11,-412.45 325,-414 331.84,-416.17 339.16,-418.51 346.12,-420.74"/>
<polygon fill="#000000" fill-opacity="0.200000" stroke="#000000" stroke-width="2" stroke-opacity="0.200000" points="345.51,-422.74 351.86,-422.58 346.79,-418.75 345.51,-422.74"/>
</g>
<!-- worker/lib/workers/qemu.ts&#45;&gt;worker/lib/helpers/graphics.ts -->
<g id="edge15" class="edge">
<title>worker/lib/workers/qemu.ts&#45;&gt;worker/lib/helpers/graphics.ts</title>
<path fill="none" stroke="#000000" stroke-width="2" stroke-opacity="0.200000" d="M309.57,-401C318.71,-401 329.18,-401 339.14,-401"/>
<polygon fill="#000000" fill-opacity="0.200000" stroke="#000000" stroke-width="2" stroke-opacity="0.200000" points="339.26,-403.1 345.26,-401 339.26,-398.9 339.26,-403.1"/>
</g>
<!-- worker/lib/workers/testbot.ts&#45;&gt;worker/lib/helpers/index.ts -->
<g id="edge16" class="edge">
<title>worker/lib/workers/testbot.ts&#45;&gt;worker/lib/helpers/index.ts</title>
<path fill="none" stroke="#000000" stroke-width="2" stroke-opacity="0.200000" d="M312.92,-377.56C317.43,-379.64 321.69,-382.39 325,-386 334.33,-396.17 323.55,-405.95 333,-416 336.57,-419.79 341.12,-422.63 345.95,-424.75"/>
<polygon fill="#000000" fill-opacity="0.200000" stroke="#000000" stroke-width="2" stroke-opacity="0.200000" points="345.36,-426.77 351.71,-426.92 346.84,-422.84 345.36,-426.77"/>
</g>
<!-- worker/lib/workers/testbot.ts&#45;&gt;worker/lib/helpers/graphics.ts -->
<g id="edge17" class="edge">
<title>worker/lib/workers/testbot.ts&#45;&gt;worker/lib/helpers/graphics.ts</title>
<path fill="none" stroke="#000000" stroke-width="2" stroke-opacity="0.200000" d="M311.85,-380C321.76,-383.15 333,-386.71 343.36,-390"/>
<polygon fill="#000000" fill-opacity="0.200000" stroke="#000000" stroke-width="2" stroke-opacity="0.200000" points="342.99,-392.09 349.34,-391.9 344.26,-388.08 342.99,-392.09"/>
</g>
<!-- worker/lib/workers/testbot.ts&#45;&gt;worker/lib/helpers/nm.ts -->
<g id="edge18" class="edge">
<title>worker/lib/workers/testbot.ts&#45;&gt;worker/lib/helpers/nm.ts</title>
<path fill="none" stroke="#000000" stroke-width="2" stroke-opacity="0.200000" d="M312.62,-371C323.05,-371 334.87,-371 345.56,-371"/>
<polygon fill="#000000" fill-opacity="0.200000" stroke="#000000" stroke-width="2" stroke-opacity="0.200000" points="345.7,-373.1 351.7,-371 345.7,-368.9 345.7,-373.1"/>
</g>
<!-- worker/test/api.spec.ts -->
<g id="node23" class="node">
<title>worker/test/api.spec.ts</title>
<g id="a_node23"><a xlink:href="worker/test/api.spec.ts" xlink:title="api.spec.ts">
<path fill="#ddfeff" stroke="black" d="M99.5,-312C99.5,-312 46.5,-312 46.5,-312 43.5,-312 40.5,-309 40.5,-306 40.5,-306 40.5,-300 40.5,-300 40.5,-297 43.5,-294 46.5,-294 46.5,-294 99.5,-294 99.5,-294 102.5,-294 105.5,-297 105.5,-300 105.5,-300 105.5,-306 105.5,-306 105.5,-309 102.5,-312 99.5,-312"/>
<text text-anchor="start" x="48.5" y="-300.8" font-family="Helvetica,sans-Serif" font-size="9.00">api.spec.ts</text>
</a>
</g>
</g>
<!-- worker/test/api.spec.ts&#45;&gt;worker/lib/index.ts -->
<g id="edge19" class="edge">
<title>worker/test/api.spec.ts&#45;&gt;worker/lib/index.ts</title>
<path fill="none" stroke="#000000" stroke-width="2" stroke-opacity="0.200000" d="M86.76,-312.02C98.95,-321.1 117.31,-336.01 130,-352 134.7,-357.92 133.19,-361.17 138,-367 144.5,-374.88 153.07,-382.2 160.77,-388.02"/>
<polygon fill="#000000" fill-opacity="0.200000" stroke="#000000" stroke-width="2" stroke-opacity="0.200000" points="159.85,-389.95 165.93,-391.8 162.33,-386.56 159.85,-389.95"/>
</g>
<!-- worker/test/api.spec.ts&#45;&gt;worker/lib/workers/testbot.ts -->
<g id="edge20" class="edge">
<title>worker/test/api.spec.ts&#45;&gt;worker/lib/workers/testbot.ts</title>
<path fill="none" stroke="#000000" stroke-width="2" stroke-opacity="0.200000" d="M84.52,-312.14C96.59,-322.09 117.38,-337.72 138,-346 173.27,-360.17 216.59,-366.32 246.35,-368.98"/>
<polygon fill="#000000" fill-opacity="0.200000" stroke="#000000" stroke-width="2" stroke-opacity="0.200000" points="246.34,-371.09 252.49,-369.5 246.69,-366.9 246.34,-371.09"/>
</g>
<!-- worker/test/helpers.spec.ts -->
<g id="node24" class="node">
<title>worker/test/helpers.spec.ts</title>
<g id="a_node24"><a xlink:href="worker/test/helpers.spec.ts" xlink:title="helpers.spec.ts">
<path fill="#ddfeff" stroke="black" d="M109.5,-282C109.5,-282 36.5,-282 36.5,-282 33.5,-282 30.5,-279 30.5,-276 30.5,-276 30.5,-270 30.5,-270 30.5,-267 33.5,-264 36.5,-264 36.5,-264 109.5,-264 109.5,-264 112.5,-264 115.5,-267 115.5,-270 115.5,-270 115.5,-276 115.5,-276 115.5,-279 112.5,-282 109.5,-282"/>
<text text-anchor="start" x="38.5" y="-270.8" font-family="Helvetica,sans-Serif" font-size="9.00">helpers.spec.ts</text>
</a>
</g>
</g>
<!-- worker/test/helpers.spec.ts&#45;&gt;worker/lib/helpers/index.ts -->
<g id="edge21" class="edge">
<title>worker/test/helpers.spec.ts&#45;&gt;worker/lib/helpers/index.ts</title>
<path fill="none" stroke="#000000" stroke-width="2" stroke-opacity="0.200000" d="M115.52,-279.19C120.83,-281.33 125.84,-284.19 130,-288 137.67,-295.03 130.17,-303.15 138,-310 202.03,-366.04 267.71,-288.09 325,-351 344.6,-372.52 314.57,-393.47 333,-416 336.37,-420.12 340.92,-423.12 345.82,-425.3"/>
<polygon fill="#000000" fill-opacity="0.200000" stroke="#000000" stroke-width="2" stroke-opacity="0.200000" points="345.34,-427.36 351.7,-427.49 346.81,-423.43 345.34,-427.36"/>
</g>
<!-- worker/test/mock/testbot.json -->
<g id="node25" class="node">
<title>worker/test/mock/testbot.json</title>
<g id="a_node25"><a xlink:href="worker/test/mock/testbot.json" xlink:title="testbot.json">
<path fill="#ffee44" stroke="black" d="M210,-230C210,-230 152,-230 152,-230 149,-230 146,-227 146,-224 146,-224 146,-218 146,-218 146,-215 149,-212 152,-212 152,-212 210,-212 210,-212 213,-212 216,-215 216,-218 216,-218 216,-224 216,-224 216,-227 213,-230 210,-230"/>
<text text-anchor="start" x="154" y="-218.8" font-family="Helvetica,sans-Serif" font-size="9.00">testbot.json</text>
</a>
</g>
</g>
<!-- worker/test/nm.spec.ts -->
<g id="node26" class="node">
<title>worker/test/nm.spec.ts</title>
<g id="a_node26"><a xlink:href="worker/test/nm.spec.ts" xlink:title="nm.spec.ts">
<path fill="#ccffcc" stroke="black" d="M100.5,-252C100.5,-252 45.5,-252 45.5,-252 42.5,-252 39.5,-249 39.5,-246 39.5,-246 39.5,-240 39.5,-240 39.5,-237 42.5,-234 45.5,-234 45.5,-234 100.5,-234 100.5,-234 103.5,-234 106.5,-237 106.5,-240 106.5,-240 106.5,-246 106.5,-246 106.5,-249 103.5,-252 100.5,-252"/>
<text text-anchor="start" x="47.5" y="-240.8" font-family="Helvetica,sans-Serif" font-size="9.00">nm.spec.ts</text>
</a>
</g>
</g>
<!-- worker/test/testbot.spec.ts -->
<g id="node27" class="node">
<title>worker/test/testbot.spec.ts</title>
<g id="a_node27"><a xlink:href="worker/test/testbot.spec.ts" xlink:title="testbot.spec.ts">
<path fill="#ddfeff" stroke="black" d="M109,-222C109,-222 37,-222 37,-222 34,-222 31,-219 31,-216 31,-216 31,-210 31,-210 31,-207 34,-204 37,-204 37,-204 109,-204 109,-204 112,-204 115,-207 115,-210 115,-210 115,-216 115,-216 115,-219 112,-222 109,-222"/>
<text text-anchor="start" x="39" y="-210.8" font-family="Helvetica,sans-Serif" font-size="9.00">testbot.spec.ts</text>
</a>
</g>
</g>
<!-- worker/test/testbot.spec.ts&#45;&gt;worker/lib/helpers/index.ts -->
<g id="edge22" class="edge">
<title>worker/test/testbot.spec.ts&#45;&gt;worker/lib/helpers/index.ts</title>
<path fill="none" stroke="#000000" stroke-width="2" stroke-opacity="0.200000" d="M115.2,-217.94C120.82,-220.23 126.01,-223.46 130,-228 147.76,-248.21 119.43,-268.53 138,-288 196.3,-349.13 268.17,-259.5 325,-322 339.1,-337.51 320.03,-399.53 333,-416 336.3,-420.19 340.8,-423.21 345.69,-425.4"/>
<polygon fill="#000000" fill-opacity="0.200000" stroke="#000000" stroke-width="2" stroke-opacity="0.200000" points="345.2,-427.46 351.56,-427.6 346.68,-423.53 345.2,-427.46"/>
</g>
<!-- worker/test/testbot.spec.ts&#45;&gt;worker/lib/workers/testbot.ts -->
<g id="edge23" class="edge">
<title>worker/test/testbot.spec.ts&#45;&gt;worker/lib/workers/testbot.ts</title>
<path fill="none" stroke="#000000" stroke-width="2" stroke-opacity="0.200000" d="M115.07,-217.7C120.77,-220.01 126.03,-223.32 130,-228 141.84,-241.97 126.7,-295.59 138,-310 165.33,-344.84 191.68,-324.69 232,-343 242.13,-347.6 252.92,-353.57 261.84,-358.82"/>
<polygon fill="#000000" fill-opacity="0.200000" stroke="#000000" stroke-width="2" stroke-opacity="0.200000" points="260.9,-360.7 267.13,-361.97 263.05,-357.09 260.9,-360.7"/>
</g>
<!-- worker/test/testbot.spec.ts&#45;&gt;worker/test/mock/testbot.json -->
<g id="edge24" class="edge">
<title>worker/test/testbot.spec.ts&#45;&gt;worker/test/mock/testbot.json</title>
<path fill="none" stroke="#000000" stroke-width="2" stroke-opacity="0.200000" d="M115.29,-216.12C123.35,-216.72 131.79,-217.36 139.81,-217.97"/>
<polygon fill="#000000" fill-opacity="0.200000" stroke="#000000" stroke-width="2" stroke-opacity="0.200000" points="139.71,-220.07 145.85,-218.42 140.03,-215.88 139.71,-220.07"/>
</g>
<!-- worker/test/testbot.ts -->
<g id="node28" class="node">
<title>worker/test/testbot.ts</title>
<g id="a_node28"><a xlink:href="worker/test/testbot.ts" xlink:title="testbot.ts">
<path fill="#ddfeff" stroke="black" d="M205,-282C205,-282 157,-282 157,-282 154,-282 151,-279 151,-276 151,-276 151,-270 151,-270 151,-267 154,-264 157,-264 157,-264 205,-264 205,-264 208,-264 211,-267 211,-270 211,-270 211,-276 211,-276 211,-279 208,-282 205,-282"/>
<text text-anchor="start" x="159" y="-270.8" font-family="Helvetica,sans-Serif" font-size="9.00">testbot.ts</text>
</a>
</g>
</g>
<!-- worker/test/testbot.spec.ts&#45;&gt;worker/test/testbot.ts -->
<g id="edge25" class="edge">
<title>worker/test/testbot.spec.ts&#45;&gt;worker/test/testbot.ts</title>
<path fill="none" stroke="#000000" stroke-width="2" stroke-opacity="0.200000" d="M115.02,-218.48C120.59,-220.71 125.82,-223.78 130,-228 140.02,-238.11 128.29,-248.6 138,-259 140.05,-261.2 142.46,-263.06 145.07,-264.62"/>
<polygon fill="#000000" fill-opacity="0.200000" stroke="#000000" stroke-width="2" stroke-opacity="0.200000" points="144.35,-266.61 150.65,-267.44 146.25,-262.86 144.35,-266.61"/>
</g>
<!-- worker/typings/dbus&#45;next.d.ts -->
<g id="node29" class="node">
<title>worker/typings/dbus&#45;next.d.ts</title>
<g id="a_node29"><a xlink:href="worker/typings/dbus-next.d.ts" xlink:title="dbus&#45;next.d.ts">
<path fill="#ccffcc" stroke="black" d="M108.5,-162C108.5,-162 37.5,-162 37.5,-162 34.5,-162 31.5,-159 31.5,-156 31.5,-156 31.5,-150 31.5,-150 31.5,-147 34.5,-144 37.5,-144 37.5,-144 108.5,-144 108.5,-144 111.5,-144 114.5,-147 114.5,-150 114.5,-150 114.5,-156 114.5,-156 114.5,-159 111.5,-162 108.5,-162"/>
<text text-anchor="start" x="39.5" y="-150.8" font-family="Helvetica,sans-Serif" font-size="9.00">dbus&#45;next.d.ts</text>
</a>
</g>
</g>
<!-- worker/typings/find&#45;free&#45;port.d.ts -->
<g id="node30" class="node">
<title>worker/typings/find&#45;free&#45;port.d.ts</title>
<g id="a_node30"><a xlink:href="worker/typings/find-free-port.d.ts" xlink:title="find&#45;free&#45;port.d.ts">
<path fill="#ccffcc" stroke="black" d="M115.5,-132C115.5,-132 30.5,-132 30.5,-132 27.5,-132 24.5,-129 24.5,-126 24.5,-126 24.5,-120 24.5,-120 24.5,-117 27.5,-114 30.5,-114 30.5,-114 115.5,-114 115.5,-114 118.5,-114 121.5,-117 121.5,-120 121.5,-120 121.5,-126 121.5,-126 121.5,-129 118.5,-132 115.5,-132"/>
<text text-anchor="start" x="32.5" y="-120.8" font-family="Helvetica,sans-Serif" font-size="9.00">find&#45;free&#45;port.d.ts</text>
</a>
</g>
</g>
<!-- worker/typings/libvirt.d.ts -->
<g id="node31" class="node">
<title>worker/typings/libvirt.d.ts</title>
<g id="a_node31"><a xlink:href="worker/typings/libvirt.d.ts" xlink:title="libvirt.d.ts">
<path fill="#ccffcc" stroke="black" d="M98,-102C98,-102 48,-102 48,-102 45,-102 42,-99 42,-96 42,-96 42,-90 42,-90 42,-87 45,-84 48,-84 48,-84 98,-84 98,-84 101,-84 104,-87 104,-90 104,-90 104,-96 104,-96 104,-99 101,-102 98,-102"/>
<text text-anchor="start" x="50" y="-90.8" font-family="Helvetica,sans-Serif" font-size="9.00">libvirt.d.ts</text>
</a>
</g>
</g>
<!-- worker/typings/multicast&#45;dns.d.ts -->
<g id="node32" class="node">
<title>worker/typings/multicast&#45;dns.d.ts</title>
<g id="a_node32"><a xlink:href="worker/typings/multicast-dns.d.ts" xlink:title="multicast&#45;dns.d.ts">
<path fill="#ccffcc" stroke="black" d="M116,-72C116,-72 30,-72 30,-72 27,-72 24,-69 24,-66 24,-66 24,-60 24,-60 24,-57 27,-54 30,-54 30,-54 116,-54 116,-54 119,-54 122,-57 122,-60 122,-60 122,-66 122,-66 122,-69 119,-72 116,-72"/>
<text text-anchor="start" x="32" y="-60.8" font-family="Helvetica,sans-Serif" font-size="9.00">multicast&#45;dns.d.ts</text>
</a>
</g>
</g>
<!-- worker/typings/worker.d.ts -->
<g id="node33" class="node">
<title>worker/typings/worker.d.ts</title>
<g id="a_node33"><a xlink:href="worker/typings/worker.d.ts" xlink:title="worker.d.ts">
<path fill="#ccffcc" stroke="black" d="M100.5,-42C100.5,-42 45.5,-42 45.5,-42 42.5,-42 39.5,-39 39.5,-36 39.5,-36 39.5,-30 39.5,-30 39.5,-27 42.5,-24 45.5,-24 45.5,-24 100.5,-24 100.5,-24 103.5,-24 106.5,-27 106.5,-30 106.5,-30 106.5,-36 106.5,-36 106.5,-39 103.5,-42 100.5,-42"/>
<text text-anchor="start" x="47.5" y="-30.8" font-family="Helvetica,sans-Serif" font-size="9.00">worker.d.ts</text>
</a>
</g>
</g>
</g>
</svg>
